HIERARCHY
ROOT hip
{
  OFFSET 5.70873 43.8894 -1.52928
  CHANNELS 6 Xposition Yposition Zposition Zrotation Xrotation Yrotation
  JOINT abdomen
  {
    OFFSET 0 5.99393 0.287273
    CHANNELS 6 Xposition Yposition Zposition Zrotation Xrotation Yrotation
    JOINT chest
    {
      OFFSET 0 6.65865 -0.856112
      CHANNELS 6 Xposition Yposition Zposition Zrotation Xrotation Yrotation
      JOINT neck
      {
        OFFSET 0 8.65624 -1.42685
        CHANNELS 6 Xposition Yposition Zposition Zrotation Xrotation Yrotation
        JOINT head
        {
          OFFSET 0 3.80999 -0.190247
          CHANNELS 6 Xposition Yposition Zposition Zrotation Xrotation Yrotation
          End Site
          {
            OFFSET 0 0 0
          }
        }
      }
      JOINT rCollar
      {
        OFFSET -1.4963 7.5744 -1.52136
        CHANNELS 6 Xposition Yposition Zposition Zrotation Xrotation Yrotation
        JOINT rShldr
        {
          OFFSET -5.47506 -0.905672 0.485692
          CHANNELS 6 Xposition Yposition Zposition Zrotation Xrotation Yrotation
          JOINT rForeArm
          {
            OFFSET -11.3069 -0.201091 0.618544
            CHANNELS 6 Xposition Yposition Zposition Zrotation Xrotation Yrotation
            JOINT rHand
            {
              OFFSET -9.61414 -0.254739 3.48553
              CHANNELS 6 Xposition Yposition Zposition Zrotation Xrotation Yrotation
              JOINT rThumb1
              {
                OFFSET 0.176263 -0.07068 1.26622
                CHANNELS 6 Xposition Yposition Zposition Zrotation Xrotation Yrotation
                JOINT rThumb2
                {
                  OFFSET -1.04683 -0.546484 1.82182
                  CHANNELS 6 Xposition Yposition Zposition Zrotation Xrotation Yrotation
                  JOINT rThumb3
                  {
                    OFFSET -0.993472 -0.621916 0.655506
                    CHANNELS 6 Xposition Yposition Zposition Zrotation Xrotation Yrotation
                    End Site
                    {
                      OFFSET -0.996134 -0.66263 0.644615
                    }
                  }
                }
              }
              JOINT rIndex1
              {
                OFFSET -2.64253 0.566363 2.4162
                CHANNELS 6 Xposition Yposition Zposition Zrotation Xrotation Yrotation
                JOINT rIndex2
                {
                  OFFSET -1.39394 -0.635138 0.899356
                  CHANNELS 6 Xposition Yposition Zposition Zrotation Xrotation Yrotation
                  JOINT rIndex3
                  {
                    OFFSET -0.622395 -0.856016 0.402182
                    CHANNELS 6 Xposition Yposition Zposition Zrotation Xrotation Yrotation
                    End Site
                    {
                      OFFSET -0.472476 -0.801802 0.34216
                    }
                  }
                }
              }
              JOINT rMid1
              {
                OFFSET -3.20814 0.514427 1.52547
                CHANNELS 6 Xposition Yposition Zposition Zrotation Xrotation Yrotation
                JOINT rMid2
                {
                  OFFSET -1.56545 -0.497974 0.68919
                  CHANNELS 6 Xposition Yposition Zposition Zrotation Xrotation Yrotation
                  JOINT rMid3
                  {
                    OFFSET -0.679943 -1.17582 0.444246
                    CHANNELS 6 Xposition Yposition Zposition Zrotation Xrotation Yrotation
                    End Site
                    {
                      OFFSET -0.343874 -0.941341 0.267611
                    }
                  }
                }
              }
              JOINT rRing1
              {
                OFFSET -3.47877 0.200518 0.597719
                CHANNELS 6 Xposition Yposition Zposition Zrotation Xrotation Yrotation
                JOINT rRing2
                {
                  OFFSET -1.28208 -0.53155 0.44672
                  CHANNELS 6 Xposition Yposition Zposition Zrotation Xrotation Yrotation
                  JOINT rRing3
                  {
                    OFFSET -0.710288 -0.970167 0.4032
                    CHANNELS 6 Xposition Yposition Zposition Zrotation Xrotation Yrotation
                    End Site
                    {
                      OFFSET -0.403228 -0.950952 0.378354
                    }
                  }
                }
              }
              JOINT rPinky1
              {
                OFFSET -3.42483 -0.278904 -0.240415
                CHANNELS 6 Xposition Yposition Zposition Zrotation Xrotation Yrotation
                JOINT rPinky2
                {
                  OFFSET -1.05787 -0.635999 0.156459
                  CHANNELS 6 Xposition Yposition Zposition Zrotation Xrotation Yrotation
                  JOINT rPinky3
                  {
                    OFFSET -0.42815 -0.754232 0.287187
                    CHANNELS 6 Xposition Yposition Zposition Zrotation Xrotation Yrotation
                    End Site
                    {
                      OFFSET -0.235717 -0.725605 0.279416
                    }
                  }
                }
              }
            }
          }
        }
      }
      JOINT lCollar
      {
        OFFSET 1.4963 7.5744 -1.52136
        CHANNELS 6 Xposition Yposition Zposition Zrotation Xrotation Yrotation
        JOINT lShldr
        {
          OFFSET 5.47506 -0.905672 0.485692
          CHANNELS 6 Xposition Yposition Zposition Zrotation Xrotation Yrotation
          JOINT lForeArm
          {
            OFFSET 11.3069 -0.201091 0.618544
            CHANNELS 6 Xposition Yposition Zposition Zrotation Xrotation Yrotation
            JOINT lHand
            {
              OFFSET 9.61414 -0.254739 3.48553
              CHANNELS 6 Xposition Yposition Zposition Zrotation Xrotation Yrotation
              JOINT lThumb1
              {
                OFFSET -0.176263 -0.07068 1.26622
                CHANNELS 6 Xposition Yposition Zposition Zrotation Xrotation Yrotation
                JOINT lThumb2
                {
                  OFFSET 1.04683 -0.546484 1.82182
                  CHANNELS 6 Xposition Yposition Zposition Zrotation Xrotation Yrotation
                  JOINT lThumb3
                  {
                    OFFSET 0.993472 -0.621916 0.655506
                    CHANNELS 6 Xposition Yposition Zposition Zrotation Xrotation Yrotation
                    End Site
                    {
                      OFFSET 0.996134 -0.66263 0.644615
                    }
                  }
                }
              }
              JOINT lIndex1
              {
                OFFSET 2.64253 0.566363 2.4162
                CHANNELS 6 Xposition Yposition Zposition Zrotation Xrotation Yrotation
                JOINT lIndex2
                {
                  OFFSET 1.39394 -0.635138 0.899356
                  CHANNELS 6 Xposition Yposition Zposition Zrotation Xrotation Yrotation
                  JOINT lIndex3
                  {
                    OFFSET 0.622395 -0.856016 0.402182
                    CHANNELS 6 Xposition Yposition Zposition Zrotation Xrotation Yrotation
                    End Site
                    {
                      OFFSET 0.472476 -0.801802 0.34216
                    }
                  }
                }
              }
              JOINT lMid1
              {
                OFFSET 3.20814 0.514427 1.52547
                CHANNELS 6 Xposition Yposition Zposition Zrotation Xrotation Yrotation
                JOINT lMid2
                {
                  OFFSET 1.56545 -0.497974 0.68919
                  CHANNELS 6 Xposition Yposition Zposition Zrotation Xrotation Yrotation
                  JOINT lMid3
                  {
                    OFFSET 0.679943 -1.17582 0.444246
                    CHANNELS 6 Xposition Yposition Zposition Zrotation Xrotation Yrotation
                    End Site
                    {
                      OFFSET 0.343874 -0.941341 0.267611
                    }
                  }
                }
              }
              JOINT lRing1
              {
                OFFSET 3.47877 0.200518 0.597719
                CHANNELS 6 Xposition Yposition Zposition Zrotation Xrotation Yrotation
                JOINT lRing2
                {
                  OFFSET 1.28208 -0.53155 0.44672
                  CHANNELS 6 Xposition Yposition Zposition Zrotation Xrotation Yrotation
                  JOINT lRing3
                  {
                    OFFSET 0.710288 -0.970167 0.4032
                    CHANNELS 6 Xposition Yposition Zposition Zrotation Xrotation Yrotation
                    End Site
                    {
                      OFFSET 0.403228 -0.950952 0.378354
                    }
                  }
                }
              }
              JOINT lPinky1
              {
                OFFSET 3.42483 -0.278904 -0.240415
                CHANNELS 6 Xposition Yposition Zposition Zrotation Xrotation Yrotation
                JOINT lPinky2
                {
                  OFFSET 1.05787 -0.635999 0.156459
                  CHANNELS 6 Xposition Yposition Zposition Zrotation Xrotation Yrotation
                  JOINT lPinky3
                  {
                    OFFSET 0.42815 -0.754232 0.287187
                    CHANNELS 6 Xposition Yposition Zposition Zrotation Xrotation Yrotation
                    End Site
                    {
                      OFFSET 0.235717 -0.725605 0.279416
                    }
                  }
                }
              }
            }
          }
        }
      }
    }
  }
  JOINT rThigh
  {
    OFFSET -4.17848 -1.02486 0.046356
    CHANNELS 6 Xposition Yposition Zposition Zrotation Xrotation Yrotation
    JOINT rShin
    {
      OFFSET 1.27155 -17.465 -0.237699
      CHANNELS 6 Xposition Yposition Zposition Zrotation Xrotation Yrotation
      JOINT rFoot
      {
        OFFSET 0.529163 -17.3815 -1.19582
        CHANNELS 6 Xposition Yposition Zposition Zrotation Xrotation Yrotation
        JOINT rToe
        {
          OFFSET -0.711591 -4.4863 4.0596
          CHANNELS 6 Xposition Yposition Zposition Zrotation Xrotation Yrotation
          End Site
          {
            OFFSET -0.869915 -1.10655 1.99006
          }
        }
      }
    }
  }
  JOINT lThigh
  {
    OFFSET 4.17848 -1.02486 0.046356
    CHANNELS 6 Xposition Yposition Zposition Zrotation Xrotation Yrotation
    JOINT lShin
    {
      OFFSET -1.27155 -17.465 -0.237699
      CHANNELS 6 Xposition Yposition Zposition Zrotation Xrotation Yrotation
      JOINT lFoot
      {
        OFFSET -0.529163 -17.3815 -1.19582
        CHANNELS 6 Xposition Yposition Zposition Zrotation Xrotation Yrotation
        JOINT lToe
        {
          OFFSET 0.711591 -4.4863 4.0596
          CHANNELS 6 Xposition Yposition Zposition Zrotation Xrotation Yrotation
          End Site
          {
            OFFSET 0.869915 -1.10655 1.99006
          }
        }
      }
    }
  }
}
MOTION
Frames:	4
Frame Time:	0.0333333
-16.9668 42.868 -22.8232 -0.635287 6.14509 101.884 -3.55271e-015 5.99393 0.287273 0.0206638 -3.58799 1.70383 0 6.65865 -0.856112 0.148893 -7.17376 3.41904 0 8.65624 -1.42685 -0.570576 13.6137 -8.57515 0 3.80999 -0.190247 -6.33082 -1.10014 -8.80723 -1.4963 7.5744 -1.52136 -43.5806 -1.20684 5.58144 -5.47506 -0.905672 0.485692 -7.91033 -42.0526 -3.66626 -11.3069 -0.201091 0.618544 2.07615 -34.98 9.81736 -9.61414 -0.254739 3.48553 9.33354 -20.4711 -7.71196 0.176263 -0.07068 1.26622 -15.6871 50.412 18.5117 -1.04683 -0.546484 1.82182 -0.515939 0.557633 -1.56017 -0.993472 -0.621916 0.655506 -2.72964 3.35531 -8.8295 -2.64253 0.566363 2.4162 -23.6212 5.47094 -14.5209 -1.39394 -0.635138 0.899356 39.8961 7.70396 -8.81741 -0.622395 -0.856016 0.402182 39.2013 7.62939 -8.62656 -3.20814 0.514427 1.52547 -0.840478 5.94957 -9.82425 -1.56545 -0.497974 0.68919 52.7411 10.533 -13.0893 -0.679943 -1.17582 0.444246 44.481 9.781 -10.5178 -3.47877 0.200518 0.597719 16.3707 -0.644967 -5.84617 -1.28208 -0.53155 0.44672 37.8363 9.71771 -10.3215 -0.710288 -0.970167 0.4032 39.1355 9.91103 -10.7659 -3.42483 -0.278904 -0.240415 24.5435 -1.90436 -2.26386 -1.05787 -0.635999 0.156459 31.0686 9.4788 -7.89266 -0.42815 -0.754232 0.287187 30.9986 9.46351 -7.86998 1.4963 7.5744 -1.52136 0.496435 0.856036 8.23864 5.47506 -0.905672 0.485692 -75.3947 -1.15727 30.862 11.3069 -0.201091 0.618544 1.29098 6.76741 -11.9961 9.61414 -0.254739 3.48553 -21.6355 -37.5599 0.727049 -0.176263 -0.07068 1.26622 0.000340618 0.00031628 1.57885e-005 1.04683 -0.546484 1.82182 -0.000252932 -0.000228455 2.20329e-005 0.993472 -0.621916 0.655506 -0.000182204 3.60777e-005 2.21096e-005 2.64253 0.566363 2.4162 -8.28068e-005 -0.000112038 0.000201245 1.39394 -0.635138 0.899356 0.000368807 0.000160183 -7.23303e-006 0.622395 -0.856016 0.402182 -0.000172286 1.30993e-005 3.52207e-005 3.20814 0.514427 1.52547 2.09793 -0.815565 -0.831919 1.56545 -0.497974 0.68919 2.09898 -0.816069 -0.832347 0.679943 -1.17582 0.444246 2.09906 -0.816176 -0.832651 3.47877 0.200518 0.597719 2.14282 -3.85043 -5.50196 1.28208 -0.53155 0.44672 4.62105 -2.03842 -2.04494 0.710288 -0.970167 0.4032 4.62131 -2.03842 -2.04498 3.42483 -0.278904 -0.240415 11.3266 -5.70937 -4.60751 1.05787 -0.635999 0.156459 4.05249 -1.91412 -1.7564 0.42815 -0.754232 0.287187 2.84279 -1.32696 -1.2434 -4.17848 -1.02486 0.046356 -2.15517 -19.8204 44.8093 1.27155 -17.465 -0.237699 9.22106 39.7437 -1.77153 0.529163 -17.3815 -1.19582 -12.8306 8.83008 -21.2814 -0.711591 -4.4863 4.0596 25.3429 -2.83543 -8.1708 4.17848 -1.02486 0.046356 -20.3969 2.94217 -1.41139 -1.27155 -17.465 -0.237699 0.486567 -3.16369 0.933127 -0.529163 -17.3815 -1.19582 9.35542 0.313336 -6.28028 0.711591 -4.4863 4.0596 5.83441 4.89979 -1.08936 
-17.1797 42.8483 -22.8504 -0.380413 6.39529 101.376 0 5.99393 0.287273 -0.048231 -3.63286 1.89796 0 6.65865 -0.856112 0.0244935 -7.26533 3.8043 0 8.65624 -1.42685 -0.647878 13.9213 -8.33802 3.55271e-015 3.80999 -0.190247 -6.30379 -0.824648 -8.67398 -1.4963 7.5744 -1.52136 -43.5916 -1.21141 5.56554 -5.47506 -0.905672 0.485692 -6.65904 -42.4335 -1.77637 -11.3069 -0.201091 0.618544 1.67077 -34.4831 8.44999 -9.61414 -0.254739 3.48553 8.80168 -20.0146 -7.01778 0.176263 -0.07068 1.26622 -15.6871 50.412 18.5117 -1.04683 -0.546484 1.82182 -0.515941 0.557626 -1.56016 -0.993472 -0.621916 0.655506 -2.72963 3.3553 -8.82948 -2.64253 0.566363 2.4162 -23.6212 5.47096 -14.5209 -1.39394 -0.635138 0.899356 39.8961 7.70396 -8.81741 -0.622395 -0.856016 0.402182 39.2013 7.62941 -8.62653 -3.20814 0.514427 1.52547 -0.840494 5.94958 -9.82427 -1.56545 -0.497974 0.68919 52.7411 10.533 -13.0893 -0.679943 -1.17582 0.444246 44.481 9.781 -10.5178 -3.47877 0.200518 0.597719 16.3707 -0.644967 -5.84617 -1.28208 -0.53155 0.44672 37.8363 9.7177 -10.3215 -0.710288 -0.970167 0.4032 39.1355 9.91104 -10.7659 -3.42483 -0.278904 -0.240415 24.5434 -1.90436 -2.26385 -1.05787 -0.635999 0.156459 31.0686 9.4788 -7.89266 -0.42815 -0.754232 0.287187 30.9985 9.46351 -7.86997 1.4963 7.5744 -1.52136 0.514177 0.84227 8.36628 5.47506 -0.905672 0.485692 -74.7393 -1.07479 30.6453 11.3069 -0.201091 0.618544 1.61098 6.75218 -11.5281 9.61414 -0.254739 3.48553 -21.4274 -36.8966 1.05638 -0.176263 -0.07068 1.26622 0.024598 0.0187907 0.0696536 1.04683 -0.546484 1.82182 -0.0267465 -0.00805944 -0.0471177 0.993472 -0.621916 0.655506 0.0121792 0.0043038 0.0243914 2.64253 0.566363 2.4162 -0.0524848 0.0488173 0.0746042 1.39394 -0.635138 0.899356 -0.0241473 0.00836992 0.00981044 0.622395 -0.856016 0.402182 -0.0403443 0.0134803 0.0161029 3.20814 0.514427 1.52547 2.06045 -0.777299 -0.809755 1.56545 -0.497974 0.68919 2.03232 -0.789604 -0.806295 0.679943 -1.17582 0.444246 2.06059 -0.800925 -0.817632 3.47877 0.200518 0.597719 2.10626 -3.82239 -5.46303 1.28208 -0.53155 0.44672 4.54055 -2.00126 -2.01048 0.710288 -0.970167 0.4032 4.56809 -2.01386 -2.02221 3.42483 -0.278904 -0.240415 11.2231 -5.66319 -4.58154 1.05787 -0.635999 0.156459 3.99043 -1.88368 -1.73033 0.42815 -0.754232 0.287187 2.80057 -1.30672 -1.22533 -4.17848 -1.02486 0.046356 -2.61965 -19.4245 44.3495 1.27155 -17.465 -0.237699 8.69514 39.2646 -1.83421 0.529163 -17.3815 -1.19582 -12.6791 7.34534 -22.2401 -0.711591 -4.4863 4.0596 25.7637 -2.88649 -8.16192 4.17848 -1.02486 0.046356 -20.7484 2.73896 -1.44455 -1.27155 -17.465 -0.237699 0.55279 -3.10406 1.18219 -0.529163 -17.3815 -1.19582 9.64813 0.551078 -6.13487 0.711591 -4.4863 4.0596 6.08875 5.11267 -1.2189 
-17.2714 42.8135 -22.882 -0.189495 6.65639 101.062 0 5.99393 0.287273 -0.110467 -3.69455 2.06869 -3.55271e-015 6.65865 -0.856112 -0.0871321 -7.39066 4.14361 -3.55271e-015 8.65624 -1.42685 -0.67595 14.3593 -8.10394 -3.55271e-015 3.80999 -0.190247 -6.43214 -0.703213 -8.46516 -1.4963 7.5744 -1.52136 -43.6237 -1.22438 5.51604 -5.47506 -0.905672 0.485692 -5.76297 -42.9719 -0.0379069 -11.3069 -0.201091 0.618544 1.22366 -34.348 6.88624 -9.61414 -0.254739 3.48553 8.35745 -18.8521 -6.46979 0.176263 -0.07068 1.26622 -15.6871 50.412 18.5117 -1.04683 -0.546484 1.82182 -0.515928 0.557635 -1.56016 -0.993472 -0.621916 0.655506 -2.72964 3.35531 -8.82949 -2.64253 0.566363 2.4162 -23.6212 5.47096 -14.5209 -1.39394 -0.635138 0.899356 39.8961 7.70397 -8.81742 -0.622395 -0.856016 0.402182 39.2013 7.6294 -8.62655 -3.20814 0.514427 1.52547 -0.840492 5.94959 -9.82426 -1.56545 -0.497974 0.68919 52.7411 10.533 -13.0893 -0.679943 -1.17582 0.444246 44.481 9.78101 -10.5178 -3.47877 0.200518 0.597719 16.3708 -0.644963 -5.84619 -1.28208 -0.53155 0.44672 37.8363 9.71773 -10.3215 -0.710288 -0.970167 0.4032 39.1355 9.91104 -10.7659 -3.42483 -0.278904 -0.240415 24.5435 -1.90435 -2.26387 -1.05787 -0.635999 0.156459 31.0686 9.4788 -7.89266 -0.42815 -0.754232 0.287187 30.9985 9.46352 -7.86997 1.4963 7.5744 -1.52136 0.505291 0.828551 8.43393 5.47506 -0.905672 0.485692 -73.9512 -0.909481 30.374 11.3069 -0.201091 0.618544 1.45588 7.09759 -11.4497 9.61414 -0.254739 3.48553 -21.3071 -35.7549 1.23012 -0.176263 -0.07068 1.26622 0.0937243 0.0721672 0.269265 1.04683 -0.546484 1.82182 -0.102406 -0.0303767 -0.181975 0.993472 -0.621916 0.655506 0.0672317 0.0201166 0.120165 2.64253 0.566363 2.4162 -0.203024 0.189176 0.288015 1.39394 -0.635138 0.899356 -0.0944319 0.0318727 0.037922 0.622395 -0.856016 0.402182 -0.155473 0.0519473 0.0622161 3.20814 0.514427 1.52547 1.95281 -0.667549 -0.746102 1.56545 -0.497974 0.68919 1.84112 -0.71395 -0.731461 0.679943 -1.17582 0.444246 1.95027 -0.757181 -0.774493 3.47877 0.200518 0.597719 2.00168 -3.74175 -5.35095 1.28208 -0.53155 0.44672 4.30979 -1.89502 -1.91143 0.710288 -0.970167 0.4032 4.41551 -1.94355 -1.95678 3.42483 -0.278904 -0.240415 10.9264 -5.53119 -4.50654 1.05787 -0.635999 0.156459 3.81243 -1.79658 -1.65548 0.42815 -0.754232 0.287187 2.67723 -1.22493 -1.16607 -4.17848 -1.02486 0.046356 -3.24242 -19.0785 43.5236 1.27155 -17.465 -0.237699 8.43567 39.2166 -1.98018 0.529163 -17.3815 -1.19582 -12.9053 4.5961 -23.0178 -0.711591 -4.4863 4.0596 25.8136 -3.11693 -7.91158 4.17848 -1.02486 0.046356 -21.1679 2.79184 -1.77635 -1.27155 -17.465 -0.237699 0.58677 -3.09723 1.34772 -0.529163 -17.3815 -1.19582 10.2969 0.46079 -5.742 0.711591 -4.4863 4.0596 6.17408 5.41536 -1.30977 
-17.2721 42.7563 -22.9183 -0.0394914 7.01806 100.968 0 5.99393 0.287273 -0.209599 -3.73465 2.19594 0 6.65865 -0.856112 -0.276149 -7.47458 4.39233 0 8.65624 -1.42685 -0.668961 14.7984 -8.00325 3.55271e-015 3.80999 -0.190247 -6.56162 -0.645487 -8.40254 -1.4963 7.5744 -1.52136 -43.6753 -1.2442 5.4303 -5.47506 -0.905672 0.485692 -5.19205 -43.6202 1.46215 -11.3069 -0.201091 0.618544 0.780163 -34.5402 5.28463 -9.61414 -0.254739 3.48553 7.91464 -17.1476 -6.08808 0.176263 -0.07068 1.26622 -15.6871 50.412 18.5117 -1.04683 -0.546484 1.82182 -0.515927 0.55764 -1.56015 -0.993472 -0.621916 0.655506 -2.72965 3.35531 -8.82948 -2.64253 0.566363 2.4162 -23.6212 5.47099 -14.5209 -1.39394 -0.635138 0.899356 39.8961 7.70398 -8.81741 -0.622395 -0.856016 0.402182 39.2013 7.62941 -8.62654 -3.20814 0.514427 1.52547 -0.840502 5.94961 -9.82426 -1.56545 -0.497974 0.68919 52.7411 10.533 -13.0893 -0.679943 -1.17582 0.444246 44.481 9.78103 -10.5178 -3.47877 0.200518 0.597719 16.3707 -0.64496 -5.84618 -1.28208 -0.53155 0.44672 37.8363 9.71774 -10.3215 -0.710288 -0.970167 0.4032 39.1355 9.91104 -10.7659 -3.42483 -0.278904 -0.240415 24.5435 -1.90435 -2.26385 -1.05787 -0.635999 0.156459 31.0685 9.4788 -7.89266 -0.42815 -0.754232 0.287187 30.9985 9.46353 -7.86995 1.4963 7.5744 -1.52136 0.578206 0.824862 8.31683 5.47506 -0.905672 0.485692 -73.2894 -0.684497 30.3175 11.3069 -0.201091 0.618544 1.29858 7.59532 -12.0431 9.61414 -0.254739 3.48553 -22.0031 -35.4765 0.880025 -0.176263 -0.07068 1.26622 0.201636 0.156476 0.584685 1.04683 -0.546484 1.82182 -0.22207 -0.0652749 -0.395034 0.993472 -0.621916 0.655506 0.158839 0.0476707 0.28358 2.64253 0.566363 2.4162 -0.442013 0.410916 0.625364 1.39394 -0.635138 0.899356 -0.205502 0.0689391 0.0823961 0.622395 -0.856016 0.402182 -0.337522 0.11256 0.135198 3.20814 0.514427 1.52547 1.78234 -0.494376 -0.645436 1.56545 -0.497974 0.68919 1.5389 -0.594911 -0.612708 0.679943 -1.17582 0.444246 1.77596 -0.688292 -0.706141 3.47877 0.200518 0.597719 1.83663 -3.61411 -5.17307 1.28208 -0.53155 0.44672 3.94488 -1.728 -1.75407 0.710288 -0.970167 0.4032 4.17429 -1.83275 -1.85304 3.42483 -0.278904 -0.240415 10.4573 -5.32387 -4.38666 1.05787 -0.635999 0.156459 3.53102 -1.65941 -1.53667 0.42815 -0.754232 0.287187 2.48802 -1.15728 -1.09111 -4.17848 -1.02486 0.046356 -4.40407 -18.4805 42.0267 1.27155 -17.465 -0.237699 8.20749 39.2331 -2.13861 0.529163 -17.3815 -1.19582 -13.0967 0.695918 -23.8754 -0.711591 -4.4863 4.0596 25.3765 -3.38624 -7.6619 4.17848 -1.02486 0.046356 -21.7099 3.08762 -2.52056 -1.27155 -17.465 -0.237699 0.598379 -3.14868 1.43692 -0.529163 -17.3815 -1.19582 11.1166 0.149857 -4.93564 0.711591 -4.4863 4.0596 6.10068 5.75144 -1.35118 
